# xmcd CD database file
#
# Track frame offsets:
#	150
#	18155
#	29168
#	48737
#	67934
#	83403
#	106038
#	116667
#	132552
#	142205
#	152871
#
# Disc length: 2272 seconds
#
# Revision: 0
# Processed by: cddbd v1.5.2PL0 Copyright (c) Steve Scherf et al.
# Submitted via: CDex 1.70beta2
#
DISCID=9608de0b
DTITLE=triad big band - blue moon
DYEAR=2010
DGENRE=Jazz
TTITLE0=hay burner
TTITLE1=lady is a tramp
TTITLE2=embraceable you
TTITLE3=blue moon
TTITLE4=flight of the foo birds
TTITLE5=oclupaca
TTITLE6=our love is here to stay
TTITLE7=makin whoopi
TTITLE8=wonderful
TTITLE9=i left my heart in san francisco
TTITLE10=april in paris
EXTD=YEAR: 2010
EXTT0=
EXTT1=
EXTT2=
EXTT3=
EXTT4=
EXTT5=
EXTT6=
EXTT7=
EXTT8=
EXTT9=
EXTT10=
PLAYORDER=
